<svg xmlns="http://www.w3.org/2000/svg" width="32" height="32" viewBox="0 0 32 32">
  <defs>
    <linearGradient id="nodeGradient1" x1="0%" y1="0%" x2="100%" y2="100%">
      <stop offset="0%" stop-color="#4F46E5"/>
      <stop offset="100%" stop-color="#7C3AED"/>
    </linearGradient>
    <linearGradient id="nodeGradient2" x1="0%" y1="0%" x2="100%" y2="100%">
      <stop offset="0%" stop-color="#06B6D4"/>
      <stop offset="100%" stop-color="#0891B2"/>
    </linearGradient>
    <linearGradient id="nodeGradient3" x1="0%" y1="0%" x2="100%" y2="100%">
      <stop offset="0%" stop-color="#10B981"/>
      <stop offset="100%" stop-color="#059669"/>
    </linearGradient>
    <linearGradient id="edgeGradient" x1="0%" y1="0%" x2="100%" y2="100%">
      <stop offset="0%" stop-color="#6B7280"/>
      <stop offset="100%" stop-color="#4B5563"/>
    </linearGradient>
  </defs>
  
  <!-- Background circle -->
  <circle cx="16" cy="16" r="15" fill="#F8FAFC" stroke="#E2E8F0" stroke-width="1"/>
  
  <!-- Edges -->
  <line x1="8" y1="10" x2="16" y2="8" stroke="url(#edgeGradient)" stroke-width="2" opacity="0.8"/>
  <line x1="16" y1="8" x2="24" y2="10" stroke="url(#edgeGradient)" stroke-width="2" opacity="0.8"/>
  <line x1="8" y1="10" x2="10" y2="20" stroke="url(#edgeGradient)" stroke-width="2" opacity="0.8"/>
  <line x1="24" y1="10" x2="22" y2="20" stroke="url(#edgeGradient)" stroke-width="2" opacity="0.8"/>
  <line x1="10" y1="20" x2="22" y2="20" stroke="url(#edgeGradient)" stroke-width="2" opacity="0.8"/>
  <line x1="16" y1="8" x2="16" y2="24" stroke="url(#edgeGradient)" stroke-width="2" opacity="0.8"/>
  <line x1="10" y1="20" x2="16" y2="24" stroke="url(#edgeGradient)" stroke-width="2" opacity="0.8"/>
  <line x1="22" y1="20" x2="16" y2="24" stroke="url(#edgeGradient)" stroke-width="2" opacity="0.8"/>
  
  <!-- Nodes -->
  <circle cx="8" cy="10" r="2.5" fill="url(#nodeGradient1)" stroke="#FFFFFF" stroke-width="1"/>
  <circle cx="16" cy="8" r="2.5" fill="url(#nodeGradient2)" stroke="#FFFFFF" stroke-width="1"/>
  <circle cx="24" cy="10" r="2.5" fill="url(#nodeGradient1)" stroke="#FFFFFF" stroke-width="1"/>
  <circle cx="10" cy="20" r="2.5" fill="url(#nodeGradient3)" stroke="#FFFFFF" stroke-width="1"/>
  <circle cx="22" cy="20" r="2.5" fill="url(#nodeGradient3)" stroke="#FFFFFF" stroke-width="1"/>
  <circle cx="16" cy="24" r="2.5" fill="url(#nodeGradient2)" stroke="#FFFFFF" stroke-width="1"/>
  
  <!-- Small algorithm-style decorative elements -->
  <circle cx="6" cy="6" r="1" fill="#F59E0B" opacity="0.6"/>
  <circle cx="26" cy="6" r="1" fill="#EF4444" opacity="0.6"/>
  <circle cx="4" cy="26" r="1" fill="#8B5CF6" opacity="0.6"/>
  <circle cx="28" cy="26" r="1" fill="#06B6D4" opacity="0.6"/>
</svg>